# xmcd
#
# Track frame offsets:
#   150
#   16377
#   34600
#   56800
#   76900
#   84550
#   107200
#   144025
#   158405
#   178000
#   192475
#   215575
#   226675
#
# Disc length: 3902 seconds
#
# Revision: 0
# Processed by: cddbd v1.5.2PL0 Copyright (c) Steve Scherf et al.
# Submitted via: GXTranscoder 2.0.1939
#
DISCID=9e0f3c0d
DTITLE=Anja - Lieblingsmusik
DYEAR=2007
DGENRE=Blues
TTITLE0=Prelude
TTITLE1=Sta clocke a sonee
TTITLE2=Habanera
TTITLE3=Segnidilla-Duet
TTITLE4=Entr아cte
TTITLE5=Votre toast, je penz vous le rendre
TTITLE6=La fleur que te m아varis jetee
TTITLE7=Entr아cte
TTITLE8=Econte, econte compagnon
TTITLE9=Quant an dounanier, c안st note affaire
TTITLE10=Je dis que rien m안ponvante
TTITLE11=Les voici! les voici!
TTITLE12=Endlich vorbei
EXTD=
EXTT0=
EXTT1=
EXTT2=
EXTT3=
EXTT4=
EXTT5=
EXTT6=
EXTT7=
EXTT8=
EXTT9=
EXTT10=
EXTT11=
EXTT12=
PLAYORDER=
